<svg width="20" height="22" viewBox="0 0 20 22" fill="none" xmlns="http://www.w3.org/2000/svg">
<path d="M13 20.4997V12.4997C13 12.2345 12.8946 11.9802 12.7071 11.7926C12.5196 11.6051 12.2652 11.4997 12 11.4997H8C7.73478 11.4997 7.48043 11.6051 7.29289 11.7926C7.10536 11.9802 7 12.2345 7 12.4997V20.4997M1 9.49974C0.99993 9.20881 1.06333 8.92136 1.18579 8.65746C1.30824 8.39355 1.4868 8.15954 1.709 7.97174L8.709 1.97274C9.06999 1.66765 9.52736 1.50026 10 1.50026C10.4726 1.50026 10.93 1.66765 11.291 1.97274L18.291 7.97174C18.5132 8.15954 18.6918 8.39355 18.8142 8.65746C18.9367 8.92136 19.0001 9.20881 19 9.49974V18.4997C19 19.0302 18.7893 19.5389 18.4142 19.914C18.0391 20.289 17.5304 20.4997 17 20.4997H3C2.46957 20.4997 1.96086 20.289 1.58579 19.914C1.21071 19.5389 1 19.0302 1 18.4997V9.49974Z" stroke="#4B3426" stroke-width="2" stroke-linecap="round" stroke-linejoin="round"/>
</svg>
